<svg xmlns="http://www.w3.org/2000/svg" xmlns:xlink="http://www.w3.org/1999/xlink" width="170" zoomAndPan="magnify" viewBox="0 0 127.5 32.999998" height="44" preserveAspectRatio="xMidYMid meet" version="1.0"><defs><g/><clipPath id="80de13ea01"><path d="M 0.144531 0.117188 L 33 0.117188 L 33 32.648438 L 0.144531 32.648438 Z M 0.144531 0.117188 " clip-rule="nonzero"/></clipPath></defs><g clip-path="url(#80de13ea01)"><path fill="#e2d703" d="M 32.8125 16.382812 C 32.8125 25.367188 25.5 32.648438 16.480469 32.648438 C 7.457031 32.648438 0.144531 25.367188 0.144531 16.382812 C 0.144531 7.402344 7.457031 0.117188 16.480469 0.117188 C 25.5 0.117188 32.8125 7.402344 32.8125 16.382812 Z M 12.023438 13.425781 C 12.023438 15.46875 10.363281 17.125 8.3125 17.125 C 6.261719 17.125 4.601562 15.46875 4.601562 13.425781 C 4.601562 11.386719 6.261719 9.730469 8.3125 9.730469 C 10.363281 9.730469 12.023438 11.386719 12.023438 13.425781 Z M 11.28125 26.734375 C 13.332031 26.734375 14.996094 25.078125 14.996094 23.039062 C 14.996094 20.996094 13.332031 19.339844 11.28125 19.339844 C 9.230469 19.339844 7.570312 20.996094 7.570312 23.039062 C 7.570312 25.078125 9.230469 26.734375 11.28125 26.734375 Z M 25.390625 23.039062 C 25.390625 25.078125 23.726562 26.734375 21.675781 26.734375 C 19.625 26.734375 17.964844 25.078125 17.964844 23.039062 C 17.964844 20.996094 19.625 19.339844 21.675781 19.339844 C 23.726562 19.339844 25.390625 20.996094 25.390625 23.039062 Z M 24.648438 17.125 C 26.695312 17.125 28.359375 15.46875 28.359375 13.425781 C 28.359375 11.386719 26.695312 9.730469 24.648438 9.730469 C 22.597656 9.730469 20.933594 11.386719 20.933594 13.425781 C 20.933594 15.46875 22.597656 17.125 24.648438 17.125 Z M 20.191406 7.511719 C 20.191406 9.554688 18.53125 11.207031 16.480469 11.207031 C 14.429688 11.207031 12.765625 9.554688 12.765625 7.511719 C 12.765625 5.46875 14.429688 3.816406 16.480469 3.816406 C 18.53125 3.816406 20.191406 5.46875 20.191406 7.511719 Z M 16.480469 17.863281 C 17.300781 17.863281 17.964844 17.199219 17.964844 16.382812 C 17.964844 15.566406 17.300781 14.90625 16.480469 14.90625 C 15.660156 14.90625 14.996094 15.566406 14.996094 16.382812 C 14.996094 17.199219 15.660156 17.863281 16.480469 17.863281 Z M 16.480469 17.863281 " fill-opacity="1" fill-rule="evenodd"/></g><path stroke-linecap="round" transform="matrix(0.742454, 0, 0, 0.73936, 0.145719, 0.118171)" fill="none" stroke-linejoin="round" d="M 33.502153 38.497986 C 35.501435 37.166597 42.998741 35.000449 49.501668 39.998439 " stroke="#e2d703" stroke-width="3" stroke-opacity="1" stroke-miterlimit="4"/><g fill="#ffffff" fill-opacity="1"><g transform="translate(40.864737, 21.24547)"><g><path d="M 6.855469 -5.566406 C 7.234375 -5.117188 7.453125 -4.863281 7.875 -4.863281 C 8.25 -4.863281 8.554688 -5.179688 8.878906 -5.566406 L 11.941406 -9.507812 L 11.941406 -1.132812 C 11.941406 -0.703125 12.109375 -0.398438 12.359375 -0.199219 C 12.601562 0.0117188 12.90625 0.105469 13.15625 0.105469 C 13.523438 0.105469 13.839844 -0.0429688 14.058594 -0.261719 C 14.269531 -0.480469 14.394531 -0.796875 14.394531 -1.132812 L 14.394531 -10.914062 C 14.394531 -11.511719 14.425781 -12.140625 14.269531 -12.601562 C 14.113281 -13.0625 13.785156 -13.378906 13.105469 -13.378906 C 12.925781 -13.378906 12.789062 -13.367188 12.675781 -13.347656 C 12.445312 -13.304688 12.277344 -13.21875 12.183594 -13.105469 C 12.089844 -12.980469 12.027344 -12.90625 11.929688 -12.757812 C 11.878906 -12.6875 11.804688 -12.570312 11.691406 -12.425781 C 11.46875 -12.121094 11.101562 -11.648438 10.496094 -10.894531 C 9.886719 -10.128906 9.027344 -9.089844 7.84375 -7.632812 L 3.5 -12.9375 C 3.300781 -13.148438 3.136719 -13.261719 2.925781 -13.316406 C 2.703125 -13.367188 2.441406 -13.378906 2.035156 -13.378906 C 1.65625 -13.378906 1.445312 -13.324219 1.320312 -13.242188 C 1.195312 -13.148438 1.164062 -13.019531 1.164062 -12.863281 C 1.164062 -12.71875 1.183594 -12.582031 1.226562 -12.464844 C 1.257812 -12.339844 1.277344 -12.203125 1.277344 -12.058594 C 1.289062 -11.230469 1.289062 -10.335938 1.289062 -9.40625 L 1.289062 -1.132812 C 1.289062 -0.785156 1.425781 -0.472656 1.644531 -0.25 C 1.855469 -0.03125 2.171875 0.105469 2.515625 0.105469 C 2.882812 0.105469 3.1875 -0.0429688 3.40625 -0.261719 C 3.628906 -0.480469 3.753906 -0.796875 3.753906 -1.132812 L 3.753906 -5.074219 C 3.742188 -6.488281 3.742188 -7.96875 3.742188 -9.53125 Z M 6.855469 -5.566406 "/></g></g></g><g fill="#ffffff" fill-opacity="1"><g transform="translate(56.401844, 21.24547)"><g><path d="M 0.640625 -5.074219 C 0.640625 -3.648438 1.226562 -2.347656 2.171875 -1.414062 C 3.113281 -0.480469 4.394531 0.105469 5.820312 0.105469 C 7.246094 0.105469 8.535156 -0.480469 9.476562 -1.414062 C 10.421875 -2.347656 10.996094 -3.648438 10.996094 -5.074219 C 10.996094 -6.5 10.421875 -7.789062 9.476562 -8.722656 C 8.535156 -9.65625 7.246094 -10.242188 5.820312 -10.242188 C 4.394531 -10.242188 3.113281 -9.65625 2.171875 -8.722656 C 1.226562 -7.789062 0.640625 -6.5 0.640625 -5.074219 Z M 3.136719 -5.074219 C 3.136719 -5.828125 3.429688 -6.53125 3.910156 -7.035156 C 4.394531 -7.539062 5.0625 -7.851562 5.820312 -7.851562 C 6.574219 -7.851562 7.246094 -7.539062 7.726562 -7.035156 C 8.210938 -6.53125 8.503906 -5.828125 8.503906 -5.074219 C 8.503906 -4.308594 8.210938 -3.605469 7.726562 -3.101562 C 7.246094 -2.601562 6.574219 -2.285156 5.820312 -2.285156 C 5.0625 -2.285156 4.394531 -2.601562 3.910156 -3.101562 C 3.429688 -3.605469 3.136719 -4.308594 3.136719 -5.074219 Z M 3.136719 -5.074219 "/></g></g></g><g fill="#ffffff" fill-opacity="1"><g transform="translate(68.038952, 21.24547)"><g><path d="M 9.96875 -8.511719 C 10.105469 -8.816406 10.117188 -9.164062 10.011719 -9.457031 C 9.90625 -9.75 9.667969 -10.003906 9.363281 -10.136719 C 9.058594 -10.296875 8.703125 -10.316406 8.410156 -10.210938 C 8.105469 -10.105469 7.84375 -9.867188 7.714844 -9.5625 L 5.179688 -3.492188 L 2.671875 -9.5625 C 2.515625 -9.867188 2.253906 -10.097656 1.960938 -10.203125 C 1.667969 -10.304688 1.320312 -10.296875 1.015625 -10.136719 C 0.691406 -9.980469 0.480469 -9.730469 0.386719 -9.4375 C 0.292969 -9.132812 0.304688 -8.785156 0.460938 -8.480469 L 4.058594 -0.585938 C 4.296875 -0.136719 4.707031 0.136719 5.160156 0.105469 C 5.628906 0.136719 6.113281 -0.105469 6.351562 -0.597656 Z M 9.96875 -8.511719 "/></g></g></g><g fill="#ffffff" fill-opacity="1"><g transform="translate(78.43896, 21.24547)"><g><path d="M 1.046875 -12.894531 C 1.046875 -12.519531 1.195312 -12.183594 1.445312 -11.941406 C 1.6875 -11.699219 2.035156 -11.5625 2.410156 -11.5625 C 2.789062 -11.5625 3.125 -11.699219 3.375 -11.941406 C 3.628906 -12.183594 3.773438 -12.519531 3.773438 -12.894531 C 3.773438 -13.273438 3.628906 -13.609375 3.375 -13.851562 C 3.125 -14.089844 2.789062 -14.238281 2.410156 -14.238281 C 2.035156 -14.238281 1.6875 -14.089844 1.445312 -13.851562 C 1.195312 -13.609375 1.046875 -13.273438 1.046875 -12.894531 Z M 1.175781 -1.132812 C 1.175781 -0.785156 1.308594 -0.472656 1.53125 -0.25 C 1.742188 -0.03125 2.054688 0.105469 2.402344 0.105469 C 2.738281 0.105469 3.050781 -0.03125 3.269531 -0.25 C 3.492188 -0.472656 3.636719 -0.785156 3.636719 -1.132812 L 3.636719 -9.027344 C 3.636719 -9.363281 3.492188 -9.675781 3.269531 -9.898438 C 3.050781 -10.117188 2.738281 -10.253906 2.402344 -10.253906 C 2.054688 -10.253906 1.742188 -10.117188 1.53125 -9.898438 C 1.308594 -9.675781 1.175781 -9.363281 1.175781 -9.027344 Z M 1.175781 -1.132812 "/></g></g></g><g fill="#ffffff" fill-opacity="1"><g transform="translate(83.251061, 21.24547)"><g><path d="M 5.820312 0.105469 C 6.625 0.105469 7.546875 -0.0820312 8.25 -0.398438 C 8.953125 -0.714844 9.445312 -1.164062 9.445312 -1.707031 C 9.445312 -2.179688 9.140625 -2.503906 8.765625 -2.640625 C 8.386719 -2.777344 7.945312 -2.769531 7.652344 -2.601562 C 7.148438 -2.171875 6.5 -1.929688 5.828125 -1.929688 C 5.125 -1.929688 4.496094 -2.222656 4.027344 -2.664062 C 3.554688 -3.101562 3.230469 -3.699219 3.175781 -4.339844 L 9.804688 -4.339844 C 10.683594 -4.339844 11.007812 -4.519531 11.007812 -5.222656 C 11.007812 -6.65625 10.441406 -7.925781 9.519531 -8.816406 C 8.597656 -9.707031 7.328125 -10.242188 5.902344 -10.242188 C 4.476562 -10.242188 3.167969 -9.699219 2.203125 -8.785156 C 1.238281 -7.863281 0.640625 -6.574219 0.640625 -5.0625 C 0.640625 -3.636719 1.226562 -2.339844 2.171875 -1.414062 C 3.113281 -0.480469 4.394531 0.105469 5.820312 0.105469 Z M 5.902344 -8.230469 C 6.574219 -8.230469 7.203125 -7.980469 7.675781 -7.558594 C 8.136719 -7.140625 8.460938 -6.5625 8.511719 -5.890625 L 3.15625 -5.890625 C 3.238281 -6.5625 3.585938 -7.140625 4.078125 -7.558594 C 4.570312 -7.980469 5.222656 -8.230469 5.902344 -8.230469 Z M 5.902344 -8.230469 "/></g></g></g><g fill="#ffffff" fill-opacity="1"><g transform="translate(94.89865, 21.24547)"><g><path d="M 1.40625 -1.183594 C 1.40625 -0.847656 1.53125 -0.523438 1.742188 -0.28125 C 1.949219 -0.0429688 2.253906 0.105469 2.632812 0.105469 C 3.007812 0.105469 3.3125 -0.0429688 3.53125 -0.28125 C 3.742188 -0.523438 3.867188 -0.847656 3.867188 -1.183594 L 3.867188 -5.105469 L 8.273438 -5.105469 C 8.597656 -5.105469 8.902344 -5.230469 9.132812 -5.453125 C 9.363281 -5.671875 9.507812 -5.976562 9.507812 -6.34375 C 9.507812 -6.71875 9.363281 -7.003906 9.132812 -7.214844 C 8.902344 -7.414062 8.574219 -7.515625 8.273438 -7.515625 L 3.867188 -7.515625 L 3.867188 -11.019531 L 9.75 -11.019531 C 10.128906 -11.019531 10.433594 -11.164062 10.640625 -11.394531 C 10.851562 -11.628906 10.964844 -11.929688 10.964844 -12.265625 C 10.957031 -12.6875 10.765625 -12.96875 10.527344 -13.148438 C 10.273438 -13.316406 9.96875 -13.378906 9.75 -13.378906 L 2.066406 -13.378906 C 1.4375 -13.378906 1.277344 -13.167969 1.277344 -12.863281 C 1.277344 -12.726562 1.300781 -12.582031 1.34375 -12.433594 C 1.375 -12.277344 1.394531 -12.128906 1.40625 -11.992188 Z M 1.40625 -1.183594 "/></g></g></g><g fill="#ffffff" fill-opacity="1"><g transform="translate(106.326079, 21.24547)"><g><path d="M 1.175781 -1.132812 C 1.175781 -0.785156 1.308594 -0.472656 1.53125 -0.25 C 1.75 -0.03125 2.066406 0.105469 2.410156 0.105469 C 2.746094 0.105469 3.0625 -0.03125 3.28125 -0.25 C 3.5 -0.472656 3.648438 -0.785156 3.648438 -1.132812 L 3.648438 -12.214844 C 3.648438 -12.550781 3.5 -12.863281 3.28125 -13.085938 C 3.0625 -13.304688 2.746094 -13.441406 2.410156 -13.441406 C 2.066406 -13.441406 1.75 -13.304688 1.53125 -13.085938 C 1.308594 -12.863281 1.175781 -12.550781 1.175781 -12.214844 Z M 1.175781 -1.132812 "/></g></g></g><g fill="#ffffff" fill-opacity="1"><g transform="translate(111.148662, 21.24547)"><g><path d="M 1.046875 -12.894531 C 1.046875 -12.519531 1.195312 -12.183594 1.445312 -11.941406 C 1.6875 -11.699219 2.035156 -11.5625 2.410156 -11.5625 C 2.789062 -11.5625 3.125 -11.699219 3.375 -11.941406 C 3.628906 -12.183594 3.773438 -12.519531 3.773438 -12.894531 C 3.773438 -13.273438 3.628906 -13.609375 3.375 -13.851562 C 3.125 -14.089844 2.789062 -14.238281 2.410156 -14.238281 C 2.035156 -14.238281 1.6875 -14.089844 1.445312 -13.851562 C 1.195312 -13.609375 1.046875 -13.273438 1.046875 -12.894531 Z M 1.175781 -1.132812 C 1.175781 -0.785156 1.308594 -0.472656 1.53125 -0.25 C 1.742188 -0.03125 2.054688 0.105469 2.402344 0.105469 C 2.738281 0.105469 3.050781 -0.03125 3.269531 -0.25 C 3.492188 -0.472656 3.636719 -0.785156 3.636719 -1.132812 L 3.636719 -9.027344 C 3.636719 -9.363281 3.492188 -9.675781 3.269531 -9.898438 C 3.050781 -10.117188 2.738281 -10.253906 2.402344 -10.253906 C 2.054688 -10.253906 1.742188 -10.117188 1.53125 -9.898438 C 1.308594 -9.675781 1.175781 -9.363281 1.175781 -9.027344 Z M 1.175781 -1.132812 "/></g></g></g><g fill="#ffffff" fill-opacity="1"><g transform="translate(115.960759, 21.24547)"><g><path d="M 9.078125 -6.917969 C 9.300781 -7.117188 9.59375 -7.371094 9.855469 -7.613281 C 10.105469 -7.851562 10.328125 -8.074219 10.441406 -8.199219 C 10.703125 -8.480469 10.808594 -8.808594 10.789062 -9.109375 C 10.765625 -9.414062 10.621094 -9.6875 10.410156 -9.886719 C 10.066406 -10.210938 9.699219 -10.273438 9.394531 -10.234375 C 9.089844 -10.179688 8.839844 -10.011719 8.722656 -9.886719 L 5.546875 -6.617188 L 3.300781 -8.890625 C 3.207031 -8.984375 3.113281 -9.089844 3.03125 -9.183594 C 2.945312 -9.277344 2.871094 -9.363281 2.800781 -9.4375 L 2.578125 -9.6875 C 2.203125 -10.105469 1.835938 -10.242188 1.5 -10.242188 C 1.164062 -10.234375 0.871094 -10.074219 0.660156 -9.867188 C 0.441406 -9.644531 0.316406 -9.339844 0.324219 -9.015625 C 0.335938 -8.691406 0.480469 -8.355469 0.777344 -8.074219 L 0.902344 -7.96875 C 1.058594 -7.820312 1.300781 -7.589844 1.5625 -7.347656 C 1.6875 -7.222656 1.804688 -7.109375 1.917969 -7.003906 L 3.972656 -5.0625 L 2.011719 -3.207031 C 1.898438 -3.101562 1.78125 -2.988281 1.644531 -2.871094 C 1.507812 -2.746094 1.382812 -2.632812 1.269531 -2.515625 C 1.015625 -2.285156 0.785156 -2.066406 0.691406 -1.949219 C 0.386719 -1.6875 0.28125 -1.351562 0.316406 -1.039062 C 0.347656 -0.722656 0.480469 -0.417969 0.679688 -0.242188 C 0.984375 0.0507812 1.34375 0.136719 1.65625 0.09375 C 1.972656 0.0625 2.253906 -0.09375 2.433594 -0.292969 C 2.558594 -0.410156 2.746094 -0.609375 2.96875 -0.839844 L 3.300781 -1.195312 C 3.417969 -1.320312 3.53125 -1.4375 3.636719 -1.550781 L 5.546875 -3.492188 L 7.433594 -1.582031 C 7.527344 -1.476562 7.644531 -1.363281 7.769531 -1.238281 C 7.882812 -1.101562 8.011719 -0.976562 8.125 -0.847656 L 8.722656 -0.230469 C 9.027344 0.0507812 9.371094 0.136719 9.6875 0.09375 C 10.003906 0.0507812 10.285156 -0.09375 10.453125 -0.292969 C 10.503906 -0.367188 10.683594 -0.617188 10.757812 -0.921875 C 10.832031 -1.226562 10.796875 -1.613281 10.433594 -1.949219 L 9.886719 -2.464844 C 9.75 -2.578125 9.625 -2.703125 9.488281 -2.839844 L 9.121094 -3.175781 L 7.117188 -5.074219 Z M 9.078125 -6.917969 "/></g></g></g></svg>