<svg width="169" height="44" viewBox="0 0 169 44" fill="none" xmlns="http://www.w3.org/2000/svg"><defs><g/><clipPath id="0cfc9116c4"><path d="M 0.792969 0.394531 L 86 0.394531 L 86 84.273438 L 0.792969 84.273438 Z M 0.792969 0.394531 " clip-rule="nonzero"/></clipPath><clipPath id="68ef6ebdb8"><path d="M 300 28 L 327.769531 28 L 327.769531 56 L 300 56 Z M 300 28 " clip-rule="nonzero"/></clipPath></defs><g clip-path="url(#0cfc9116c4)"><path fill="#e2d703" d="M 85.03125 42.335938 C 85.03125 65.496094 66.171875 84.273438 42.914062 84.273438 C 19.652344 84.273438 0.796875 65.496094 0.796875 42.335938 C 0.796875 19.171875 19.652344 0.394531 42.914062 0.394531 C 66.171875 0.394531 85.03125 19.171875 85.03125 42.335938 Z M 31.425781 34.710938 C 31.425781 39.972656 27.140625 44.242188 21.855469 44.242188 C 16.570312 44.242188 12.285156 39.972656 12.285156 34.710938 C 12.285156 29.445312 16.570312 25.175781 21.855469 25.175781 C 27.140625 25.175781 31.425781 29.445312 31.425781 34.710938 Z M 29.511719 69.023438 C 34.800781 69.023438 39.085938 64.757812 39.085938 59.492188 C 39.085938 54.226562 34.800781 49.960938 29.511719 49.960938 C 24.226562 49.960938 19.941406 54.226562 19.941406 59.492188 C 19.941406 64.757812 24.226562 69.023438 29.511719 69.023438 Z M 65.886719 59.492188 C 65.886719 64.757812 61.601562 69.023438 56.3125 69.023438 C 51.027344 69.023438 46.742188 64.757812 46.742188 59.492188 C 46.742188 54.226562 51.027344 49.960938 56.3125 49.960938 C 61.601562 49.960938 65.886719 54.226562 65.886719 59.492188 Z M 63.972656 44.242188 C 69.257812 44.242188 73.542969 39.972656 73.542969 34.710938 C 73.542969 29.445312 69.257812 25.175781 63.972656 25.175781 C 58.683594 25.175781 54.398438 29.445312 54.398438 34.710938 C 54.398438 39.972656 58.683594 44.242188 63.972656 44.242188 Z M 52.484375 19.457031 C 52.484375 24.722656 48.199219 28.988281 42.914062 28.988281 C 37.628906 28.988281 33.34375 24.722656 33.34375 19.457031 C 33.34375 14.195312 37.628906 9.925781 42.914062 9.925781 C 48.199219 9.925781 52.484375 14.195312 52.484375 19.457031 Z M 42.914062 46.148438 C 45.027344 46.148438 46.742188 44.441406 46.742188 42.335938 C 46.742188 40.230469 45.027344 38.523438 42.914062 38.523438 C 40.800781 38.523438 39.085938 40.230469 39.085938 42.335938 C 39.085938 44.441406 40.800781 46.148438 42.914062 46.148438 Z M 42.914062 46.148438 " fill-opacity="1" fill-rule="evenodd"/></g><path stroke-linecap="round" transform="matrix(1.914352, 0, 0, 1.906373, 0.798038, 0.39441)" fill="none" stroke-linejoin="round" d="M 33.500455 38.499634 C 35.500153 37.165704 42.99902 34.999859 49.500079 39.999538 " stroke="#e2d703" stroke-width="3" stroke-opacity="1" stroke-miterlimit="4"/><g fill="#ffffff" fill-opacity="1"><g transform="translate(105.788376, 54.869258)"><g><path d="M 17.679688 -14.355469 C 18.652344 -13.191406 19.21875 -12.542969 20.300781 -12.542969 C 21.273438 -12.542969 22.058594 -13.355469 22.898438 -14.355469 L 30.789062 -24.519531 L 30.789062 -2.917969 C 30.789062 -1.8125 31.222656 -1.027344 31.871094 -0.511719 C 32.492188 0.0273438 33.277344 0.269531 33.925781 0.269531 C 34.871094 0.269531 35.683594 -0.109375 36.25 -0.675781 C 36.792969 -1.242188 37.117188 -2.054688 37.117188 -2.917969 L 37.117188 -28.140625 C 37.117188 -29.683594 37.195312 -31.304688 36.792969 -32.492188 C 36.386719 -33.683594 35.546875 -34.492188 33.789062 -34.492188 C 33.332031 -34.492188 32.980469 -34.464844 32.683594 -34.414062 C 32.085938 -34.304688 31.65625 -34.089844 31.410156 -33.789062 C 31.167969 -33.464844 31.007812 -33.277344 30.761719 -32.898438 C 30.628906 -32.710938 30.4375 -32.414062 30.140625 -32.035156 C 29.574219 -31.25 28.628906 -30.035156 27.058594 -28.085938 C 25.492188 -26.113281 23.273438 -23.4375 20.21875 -19.679688 L 9.027344 -33.359375 C 8.515625 -33.898438 8.082031 -34.195312 7.542969 -34.332031 C 6.972656 -34.464844 6.296875 -34.492188 5.246094 -34.492188 C 4.269531 -34.492188 3.730469 -34.359375 3.40625 -34.140625 C 3.082031 -33.898438 3 -33.574219 3 -33.167969 C 3 -32.789062 3.054688 -32.4375 3.164062 -32.140625 C 3.242188 -31.816406 3.296875 -31.464844 3.296875 -31.085938 C 3.324219 -28.953125 3.324219 -26.652344 3.324219 -24.25 L 3.324219 -2.917969 C 3.324219 -2.027344 3.675781 -1.214844 4.242188 -0.648438 C 4.785156 -0.0820312 5.597656 0.269531 6.488281 0.269531 C 7.433594 0.269531 8.21875 -0.109375 8.785156 -0.675781 C 9.351562 -1.242188 9.675781 -2.054688 9.675781 -2.917969 L 9.675781 -13.082031 C 9.652344 -16.734375 9.652344 -20.542969 9.652344 -24.574219 Z M 17.679688 -14.355469 "/></g></g></g><g fill="#ffffff" fill-opacity="1"><g transform="translate(145.849416, 54.869258)"><g><path d="M 1.648438 -13.082031 C 1.648438 -9.40625 3.164062 -6.054688 5.597656 -3.648438 C 8.027344 -1.242188 11.328125 0.269531 15.003906 0.269531 C 18.679688 0.269531 22.003906 -1.242188 24.4375 -3.648438 C 26.871094 -6.054688 28.355469 -9.40625 28.355469 -13.082031 C 28.355469 -16.761719 26.871094 -20.085938 24.4375 -22.492188 C 22.003906 -24.898438 18.679688 -26.410156 15.003906 -26.410156 C 11.328125 -26.410156 8.027344 -24.898438 5.597656 -22.492188 C 3.164062 -20.085938 1.648438 -16.761719 1.648438 -13.082031 Z M 8.082031 -13.082031 C 8.082031 -15.03125 8.839844 -16.839844 10.082031 -18.140625 C 11.328125 -19.4375 13.058594 -20.246094 15.003906 -20.246094 C 16.949219 -20.246094 18.679688 -19.4375 19.921875 -18.140625 C 21.167969 -16.839844 21.921875 -15.03125 21.921875 -13.082031 C 21.921875 -11.109375 21.167969 -9.300781 19.921875 -8 C 18.679688 -6.703125 16.949219 -5.894531 15.003906 -5.894531 C 13.058594 -5.894531 11.328125 -6.703125 10.082031 -8 C 8.839844 -9.300781 8.082031 -11.109375 8.082031 -13.082031 Z M 8.082031 -13.082031 "/></g></g></g><g fill="#ffffff" fill-opacity="1"><g transform="translate(175.854655, 54.869258)"><g><path d="M 25.707031 -21.949219 C 26.058594 -22.734375 26.085938 -23.625 25.816406 -24.382812 C 25.546875 -25.140625 24.925781 -25.789062 24.140625 -26.140625 C 23.355469 -26.546875 22.4375 -26.601562 21.679688 -26.328125 C 20.894531 -26.058594 20.21875 -25.4375 19.894531 -24.652344 L 13.355469 -9 L 6.894531 -24.652344 C 6.488281 -25.4375 5.8125 -26.03125 5.054688 -26.304688 C 4.296875 -26.574219 3.40625 -26.546875 2.621094 -26.140625 C 1.785156 -25.734375 1.242188 -25.085938 1 -24.328125 C 0.757812 -23.546875 0.785156 -22.652344 1.1875 -21.871094 L 10.460938 -1.515625 C 11.082031 -0.351562 12.136719 0.351562 13.300781 0.269531 C 14.515625 0.351562 15.761719 -0.269531 16.382812 -1.539062 Z M 25.707031 -21.949219 "/></g></g></g><g fill="#ffffff" fill-opacity="1"><g transform="translate(202.670145, 54.869258)"><g><path d="M 2.703125 -33.25 C 2.703125 -32.277344 3.082031 -31.410156 3.730469 -30.789062 C 4.351562 -30.167969 5.246094 -29.816406 6.21875 -29.816406 C 7.191406 -29.816406 8.054688 -30.167969 8.703125 -30.789062 C 9.351562 -31.410156 9.730469 -32.277344 9.730469 -33.25 C 9.730469 -34.222656 9.351562 -35.089844 8.703125 -35.710938 C 8.054688 -36.332031 7.191406 -36.710938 6.21875 -36.710938 C 5.246094 -36.710938 4.351562 -36.332031 3.730469 -35.710938 C 3.082031 -35.089844 2.703125 -34.222656 2.703125 -33.25 Z M 3.027344 -2.917969 C 3.027344 -2.027344 3.378906 -1.214844 3.945312 -0.648438 C 4.488281 -0.0820312 5.296875 0.269531 6.191406 0.269531 C 7.054688 0.269531 7.867188 -0.0820312 8.433594 -0.648438 C 9 -1.214844 9.378906 -2.027344 9.378906 -2.917969 L 9.378906 -23.273438 C 9.378906 -24.140625 9 -24.953125 8.433594 -25.519531 C 7.867188 -26.085938 7.054688 -26.4375 6.191406 -26.4375 C 5.296875 -26.4375 4.488281 -26.085938 3.945312 -25.519531 C 3.378906 -24.953125 3.027344 -24.140625 3.027344 -23.273438 Z M 3.027344 -2.917969 "/></g></g></g><g fill="#ffffff" fill-opacity="1"><g transform="translate(215.077717, 54.869258)"><g><path d="M 15.003906 0.269531 C 17.085938 0.269531 19.464844 -0.214844 21.273438 -1.027344 C 23.085938 -1.839844 24.355469 -3 24.355469 -4.40625 C 24.355469 -5.621094 23.574219 -6.460938 22.597656 -6.8125 C 21.625 -7.164062 20.492188 -7.136719 19.734375 -6.703125 C 18.4375 -5.597656 16.761719 -4.972656 15.03125 -4.972656 C 13.21875 -4.972656 11.597656 -5.730469 10.378906 -6.867188 C 9.164062 -8 8.324219 -9.542969 8.191406 -11.191406 L 25.277344 -11.191406 C 27.546875 -11.191406 28.382812 -11.652344 28.382812 -13.460938 C 28.382812 -17.164062 26.925781 -20.4375 24.546875 -22.734375 C 22.167969 -25.03125 18.894531 -26.410156 15.21875 -26.410156 C 11.542969 -26.410156 8.164062 -25.003906 5.675781 -22.652344 C 3.191406 -20.273438 1.648438 -16.949219 1.648438 -13.058594 C 1.648438 -9.378906 3.164062 -6.027344 5.597656 -3.648438 C 8.027344 -1.242188 11.328125 0.269531 15.003906 0.269531 Z M 15.21875 -21.21875 C 16.949219 -21.21875 18.570312 -20.570312 19.789062 -19.492188 C 20.976562 -18.410156 21.816406 -16.921875 21.949219 -15.191406 L 8.136719 -15.191406 C 8.351562 -16.921875 9.246094 -18.410156 10.515625 -19.492188 C 11.785156 -20.570312 13.460938 -21.21875 15.21875 -21.21875 Z M 15.21875 -21.21875 "/></g></g></g><g fill="#ffffff" fill-opacity="1"><g transform="translate(245.109983, 54.869258)"><g><path d="M 3.621094 -3.054688 C 3.621094 -2.191406 3.945312 -1.351562 4.488281 -0.730469 C 5.027344 -0.109375 5.8125 0.269531 6.785156 0.269531 C 7.757812 0.269531 8.542969 -0.109375 9.109375 -0.730469 C 9.652344 -1.351562 9.976562 -2.191406 9.976562 -3.054688 L 9.976562 -13.164062 L 21.328125 -13.164062 C 22.167969 -13.164062 22.949219 -13.488281 23.546875 -14.058594 C 24.140625 -14.625 24.519531 -15.410156 24.519531 -16.355469 C 24.519531 -17.328125 24.140625 -18.058594 23.546875 -18.597656 C 22.949219 -19.113281 22.113281 -19.382812 21.328125 -19.382812 L 9.976562 -19.382812 L 9.976562 -28.410156 L 25.140625 -28.410156 C 26.113281 -28.410156 26.898438 -28.789062 27.4375 -29.382812 C 27.980469 -29.980469 28.277344 -30.761719 28.277344 -31.628906 C 28.25 -32.710938 27.761719 -33.441406 27.140625 -33.898438 C 26.492188 -34.332031 25.707031 -34.492188 25.140625 -34.492188 L 5.324219 -34.492188 C 3.703125 -34.492188 3.296875 -33.953125 3.296875 -33.167969 C 3.296875 -32.816406 3.351562 -32.4375 3.460938 -32.0625 C 3.542969 -31.65625 3.59375 -31.277344 3.621094 -30.925781 Z M 3.621094 -3.054688 "/></g></g></g><g fill="#ffffff" fill-opacity="1"><g transform="translate(274.574585, 54.869258)"><g><path d="M 3.027344 -2.917969 C 3.027344 -2.027344 3.378906 -1.214844 3.945312 -0.648438 C 4.515625 -0.0820312 5.324219 0.269531 6.21875 0.269531 C 7.082031 0.269531 7.894531 -0.0820312 8.460938 -0.648438 C 9.027344 -1.214844 9.40625 -2.027344 9.40625 -2.917969 L 9.40625 -31.492188 C 9.40625 -32.359375 9.027344 -33.167969 8.460938 -33.738281 C 7.894531 -34.304688 7.082031 -34.65625 6.21875 -34.65625 C 5.324219 -34.65625 4.515625 -34.304688 3.945312 -33.738281 C 3.378906 -33.167969 3.027344 -32.359375 3.027344 -31.492188 Z M 3.027344 -2.917969 "/></g></g></g><g fill="#ffffff" fill-opacity="1"><g transform="translate(287.009184, 54.869258)"><g><path d="M 2.703125 -33.25 C 2.703125 -32.277344 3.082031 -31.410156 3.730469 -30.789062 C 4.351562 -30.167969 5.246094 -29.816406 6.21875 -29.816406 C 7.191406 -29.816406 8.054688 -30.167969 8.703125 -30.789062 C 9.351562 -31.410156 9.730469 -32.277344 9.730469 -33.25 C 9.730469 -34.222656 9.351562 -35.089844 8.703125 -35.710938 C 8.054688 -36.332031 7.191406 -36.710938 6.21875 -36.710938 C 5.246094 -36.710938 4.351562 -36.332031 3.730469 -35.710938 C 3.082031 -35.089844 2.703125 -34.222656 2.703125 -33.25 Z M 3.027344 -2.917969 C 3.027344 -2.027344 3.378906 -1.214844 3.945312 -0.648438 C 4.488281 -0.0820312 5.296875 0.269531 6.191406 0.269531 C 7.054688 0.269531 7.867188 -0.0820312 8.433594 -0.648438 C 9 -1.214844 9.378906 -2.027344 9.378906 -2.917969 L 9.378906 -23.273438 C 9.378906 -24.140625 9 -24.953125 8.433594 -25.519531 C 7.867188 -26.085938 7.054688 -26.4375 6.191406 -26.4375 C 5.296875 -26.4375 4.488281 -26.085938 3.945312 -25.519531 C 3.378906 -24.953125 3.027344 -24.140625 3.027344 -23.273438 Z M 3.027344 -2.917969 "/></g></g></g><g clip-path="url(#68ef6ebdb8)"><g fill="#ffffff" fill-opacity="1"><g transform="translate(299.416745, 54.869258)"><g><path d="M 23.410156 -17.839844 C 23.976562 -18.355469 24.734375 -19.003906 25.410156 -19.625 C 26.058594 -20.246094 26.628906 -20.816406 26.925781 -21.140625 C 27.601562 -21.871094 27.871094 -22.707031 27.816406 -23.492188 C 27.761719 -24.273438 27.382812 -24.976562 26.84375 -25.492188 C 25.953125 -26.328125 25.003906 -26.492188 24.222656 -26.382812 C 23.4375 -26.25 22.789062 -25.816406 22.492188 -25.492188 L 14.300781 -17.058594 L 8.515625 -22.921875 C 8.273438 -23.167969 8.027344 -23.4375 7.8125 -23.679688 C 7.597656 -23.925781 7.40625 -24.140625 7.21875 -24.328125 L 6.648438 -24.976562 C 5.675781 -26.058594 4.730469 -26.410156 3.867188 -26.410156 C 3 -26.382812 2.242188 -25.976562 1.703125 -25.4375 C 1.136719 -24.871094 0.8125 -24.085938 0.839844 -23.25 C 0.863281 -22.410156 1.242188 -21.546875 2 -20.816406 L 2.324219 -20.542969 C 2.730469 -20.167969 3.351562 -19.570312 4.027344 -18.949219 C 4.351562 -18.625 4.648438 -18.328125 4.945312 -18.058594 L 10.246094 -13.058594 L 5.191406 -8.273438 C 4.894531 -8 4.59375 -7.703125 4.242188 -7.40625 C 3.894531 -7.082031 3.566406 -6.785156 3.269531 -6.488281 C 2.621094 -5.894531 2.027344 -5.324219 1.785156 -5.027344 C 1 -4.351562 0.730469 -3.488281 0.8125 -2.675781 C 0.890625 -1.867188 1.242188 -1.082031 1.757812 -0.621094 C 2.542969 0.136719 3.460938 0.351562 4.269531 0.242188 C 5.082031 0.164062 5.8125 -0.242188 6.273438 -0.757812 C 6.597656 -1.054688 7.082031 -1.566406 7.648438 -2.164062 L 8.515625 -3.082031 C 8.8125 -3.40625 9.109375 -3.703125 9.378906 -4 L 14.300781 -9 L 19.167969 -4.082031 C 19.410156 -3.8125 19.707031 -3.515625 20.03125 -3.191406 C 20.328125 -2.839844 20.652344 -2.515625 20.949219 -2.191406 L 22.492188 -0.59375 C 23.273438 0.136719 24.167969 0.351562 24.976562 0.242188 C 25.789062 0.136719 26.519531 -0.242188 26.953125 -0.757812 C 27.085938 -0.945312 27.546875 -1.59375 27.734375 -2.378906 C 27.925781 -3.164062 27.84375 -4.164062 26.898438 -5.027344 L 25.492188 -6.351562 C 25.140625 -6.648438 24.816406 -6.972656 24.464844 -7.324219 L 23.519531 -8.191406 L 18.355469 -13.082031 Z M 23.410156 -17.839844 "/></g></g></g></g></svg>